<?xml version="1.0" standalone="no"?>
<!DOCTYPE svg PUBLIC "-//W3C//DTD SVG 20010904//EN"
 "http://www.w3.org/TR/2001/REC-SVG-20010904/DTD/svg10.dtd">
<svg version="1.0" xmlns="http://www.w3.org/2000/svg"
 width="1105.000000pt" height="478.000000pt" viewBox="0 0 1105.000000 478.000000"
 preserveAspectRatio="xMidYMid meet">

<g transform="translate(0.000000,478.000000) scale(0.100000,-0.100000)"
fill="#000000" stroke="none">
<path d="M1535 4418 c-16 -15 -26 -28 -20 -28 5 0 -1 -7 -13 -16 -18 -13 -21
-19 -11 -30 6 -8 9 -18 5 -21 -4 -4 -11 -1 -16 7 -13 21 -52 -16 -45 -44 3
-12 2 -15 -1 -8 -4 9 -18 1 -46 -27 -24 -25 -37 -46 -32 -53 4 -7 4 -10 -1 -6
-4 4 -25 -12 -47 -35 -21 -23 -52 -55 -67 -72 -95 -103 -181 -204 -181 -213 0
-5 -7 -12 -15 -16 -8 -3 -14 -11 -13 -18 2 -7 -4 -12 -12 -13 -8 0 -30 -22
-47 -49 -18 -26 -33 -45 -33 -41 0 4 -7 2 -15 -5 -9 -7 -13 -21 -10 -31 5 -14
2 -17 -8 -13 -7 2 -20 -3 -28 -12 -12 -15 -12 -17 0 -9 10 5 12 4 7 -4 -4 -6
-11 -9 -16 -6 -11 7 -41 -35 -34 -47 3 -5 0 -7 -8 -6 -7 2 -12 -3 -10 -10 1
-8 -1 -11 -6 -8 -14 9 -65 -51 -56 -66 4 -7 4 -10 -1 -6 -9 9 -155 -141 -155
-159 0 -7 -4 -13 -9 -13 -5 0 -41 -37 -81 -81 -56 -63 -69 -84 -58 -91 10 -8
9 -9 -4 -5 -19 7 -88 -63 -88 -89 0 -8 -4 -13 -9 -10 -5 3 -11 -3 -14 -14 -3
-11 -11 -20 -19 -21 -20 -1 -110 -108 -102 -122 4 -7 3 -9 -1 -4 -10 9 -75
-51 -75 -70 0 -7 -4 -13 -10 -13 -7 0 -10 -148 -10 -425 l0 -424 43 -48 c23
-27 58 -66 77 -88 74 -84 106 -112 120 -108 13 4 13 3 0 -6 -12 -8 -10 -15 14
-40 17 -18 34 -27 44 -24 10 4 13 2 8 -5 -9 -15 20 -59 42 -64 9 -3 24 -18 31
-34 19 -37 91 -114 108 -114 7 0 13 -5 13 -11 0 -5 -6 -7 -13 -3 -6 4 1 -7 18
-25 16 -17 34 -30 40 -27 7 2 12 -2 12 -10 0 -7 -5 -10 -11 -7 -6 3 4 -10 23
-30 19 -20 39 -33 44 -30 6 3 7 1 3 -5 -8 -13 52 -84 65 -76 5 3 9 -3 9 -14 0
-10 17 -35 37 -55 21 -19 46 -47 56 -61 10 -14 27 -26 37 -26 12 0 17 -5 14
-14 -3 -7 6 -26 21 -42 14 -16 24 -24 23 -19 -2 6 2 11 7 12 6 2 10 -7 11 -20
0 -12 6 -21 13 -19 7 1 10 -1 7 -6 -3 -5 2 -19 11 -32 15 -22 17 -22 30 -4 10
14 16 15 26 5 10 -10 8 -14 -6 -22 -16 -10 -16 -13 9 -42 53 -63 107 -122 99
-107 -8 13 -7 13 8 1 9 -7 17 -20 17 -27 0 -8 9 -19 20 -26 11 -7 20 -18 20
-24 0 -16 49 -59 67 -59 9 0 18 -7 20 -15 4 -13 3 -13 -6 0 -5 8 -13 11 -17 7
-4 -4 18 -32 48 -62 30 -30 52 -55 49 -55 -3 0 14 -18 37 -39 23 -22 42 -43
42 -48 0 -4 13 -21 30 -36 l29 -28 1 421 c0 279 -3 420 -10 420 -5 0 -9 6 -7
13 1 6 -6 11 -15 9 -13 -2 -16 2 -12 13 4 10 -9 31 -38 60 -25 24 -44 46 -41
48 2 3 -12 18 -32 35 -19 17 -35 35 -35 40 0 16 -58 64 -70 57 -7 -4 -10 0 -8
11 2 12 -2 18 -11 16 -8 -2 -11 3 -8 12 7 17 -33 57 -60 59 -15 1 -19 7 -15
26 3 20 1 23 -7 11 -8 -12 -12 -9 -21 15 -16 41 -59 97 -71 90 -5 -4 -9 1 -9
9 0 8 -5 18 -12 22 -7 5 -8 2 -3 -7 5 -8 4 -11 -1 -6 -5 5 -9 16 -9 25 0 9 -6
17 -12 17 -7 0 -14 5 -14 10 -1 6 -15 26 -32 45 -86 100 -167 190 -208 232
-25 27 -44 48 -41 48 3 0 -5 11 -18 25 -13 14 -30 23 -37 21 -8 -3 -13 2 -13
12 0 27 -29 62 -45 56 -9 -4 -16 3 -21 20 -3 14 -13 26 -21 26 -8 0 -11 5 -8
10 4 6 1 17 -5 26 -10 12 -16 12 -28 2 -13 -11 -15 -10 -9 4 4 11 -5 33 -27
61 l-33 43 34 38 c20 21 31 42 27 49 -4 7 -4 9 1 5 9 -8 55 39 189 191 31 35
53 67 50 72 -3 5 0 8 8 7 7 -2 12 4 10 12 -2 8 0 12 4 8 10 -11 34 11 34 31 0
17 39 73 40 57 0 -5 -8 -19 -17 -30 -10 -12 -1 -6 19 13 21 19 35 38 32 43 -3
4 -1 8 4 8 5 0 15 11 22 25 7 13 16 22 20 20 4 -3 15 4 24 14 13 15 14 20 4
24 -8 4 -7 6 5 6 9 1 17 8 17 17 0 8 4 13 9 10 12 -8 72 64 64 78 -3 6 -2 8 2
3 8 -7 65 39 65 52 0 4 34 42 75 86 41 44 75 82 75 85 0 3 34 42 75 85 41 44
83 96 93 116 10 19 23 34 28 32 12 -4 34 19 38 39 2 7 6 20 10 28 3 8 5 198 4
421 l-3 406 -30 -29z m-115 -167 c0 -6 -4 -13 -10 -16 -5 -3 -10 1 -10 9 0 9
5 16 10 16 6 0 10 -4 10 -9z m-260 -291 c0 -5 -2 -10 -4 -10 -3 0 -8 5 -11 10
-3 6 -1 10 4 10 6 0 11 -4 11 -10z m-200 -250 c0 -5 -4 -10 -10 -10 -5 0 -10
5 -10 10 0 6 5 10 10 10 6 0 10 -4 10 -10z m-100 -120 c0 -5 -8 -10 -17 -10
-15 0 -16 2 -3 10 19 12 20 12 20 0z m-65 -60 c3 -5 1 -10 -4 -10 -6 0 -11 5
-11 10 0 6 2 10 4 10 3 0 8 -4 11 -10z m688 -7 c-3 -7 -9 -13 -14 -13 -5 0 -9
6 -9 13 0 8 6 14 14 14 8 0 12 -6 9 -14z m-1083 -417 c0 -3 -4 -8 -10 -11 -5
-3 -10 -1 -10 4 0 6 5 11 10 11 6 0 10 -2 10 -4z m-82 -111 c-1 -14 -6 -25
-11 -25 -5 0 -6 7 -3 16 3 9 6 20 6 25 0 5 2 9 5 9 3 0 4 -11 3 -25z m52 -390
c7 -8 8 -15 2 -15 -5 0 -15 7 -22 15 -7 8 -8 15 -2 15 5 0 15 -7 22 -15z m90
-75 c0 -5 -4 -10 -10 -10 -5 0 -10 5 -10 10 0 6 5 10 10 10 6 0 10 -4 10 -10z
m125 -9 c-3 -6 -11 -11 -16 -11 -5 0 -4 6 3 14 14 16 24 13 13 -3z m-225 -346
c-7 -8 -17 -15 -22 -15 -6 0 -5 7 2 15 7 8 17 15 22 15 6 0 5 -7 -2 -15z m328
-30 c1 -18 -2 -23 -13 -19 -18 7 -20 44 -2 44 7 0 14 -11 15 -25z m-408 -39
c0 -2 -8 -10 -17 -17 -16 -13 -17 -12 -4 4 13 16 21 21 21 13z m450 -31 c7 -9
8 -15 2 -15 -5 0 -12 7 -16 15 -3 8 -4 15 -2 15 2 0 9 -7 16 -15z m-330 -345
c0 -5 -4 -10 -10 -10 -5 0 -10 5 -10 10 0 6 5 10 10 10 6 0 10 -4 10 -10z
m740 -70 c0 -5 -2 -10 -4 -10 -3 0 -8 5 -11 10 -3 6 -1 10 4 10 6 0 11 -4 11
-10z m-680 -4 c0 -3 -4 -8 -10 -11 -5 -3 -10 -1 -10 4 0 6 5 11 10 11 6 0 10
-2 10 -4z m100 -126 c0 -5 -4 -10 -10 -10 -5 0 -10 5 -10 10 0 6 5 10 10 10 6
0 10 -4 10 -10z m987 -407 c-3 -10 -5 -2 -5 17 0 19 2 27 5 18 2 -10 2 -26 0
-35z"/>
<path d="M3329 3260 c-115 -18 -212 -71 -292 -160 -86 -95 -127 -214 -127
-365 0 -153 41 -265 132 -361 88 -93 196 -140 346 -150 269 -18 482 130 547
381 19 75 19 224 0 298 -44 170 -172 299 -338 343 -69 18 -199 25 -268 14z
m197 -67 c131 -44 213 -149 249 -320 45 -209 -10 -431 -128 -524 -130 -103
-344 -88 -452 33 -174 192 -163 621 19 759 87 66 210 87 312 52z"/>
<path d="M6263 3260 c-281 -51 -456 -308 -413 -607 36 -256 209 -411 479 -429
163 -11 302 37 407 141 103 101 154 230 154 390 0 242 -130 425 -348 489 -68
20 -211 28 -279 16z m234 -79 c99 -43 180 -153 214 -291 20 -81 17 -271 -5
-345 -53 -179 -179 -274 -349 -263 -169 11 -279 115 -328 309 -18 69 -20 102
-16 203 5 137 22 201 70 272 68 101 162 147 287 141 49 -3 93 -12 127 -26z"/>
<path d="M9294 3260 c-216 -30 -369 -129 -447 -290 -121 -248 -31 -555 198
-677 100 -53 166 -67 300 -67 111 -1 281 23 314 43 6 4 18 48 26 97 8 49 19
105 24 126 7 31 6 37 -10 41 -15 4 -27 -10 -56 -66 -76 -145 -159 -194 -312
-185 -223 13 -370 201 -371 474 0 95 14 166 49 240 37 80 96 138 179 177 57
27 81 32 165 35 89 4 102 2 151 -22 63 -31 101 -80 118 -154 11 -44 16 -52 36
-52 23 0 23 0 20 128 l-3 127 -60 12 c-84 17 -248 23 -321 13z"/>
<path d="M1857 3228 c-4 -13 5 -18 45 -23 93 -13 88 13 88 -455 l0 -411 -24
-24 c-14 -14 -42 -27 -65 -31 -30 -5 -41 -11 -41 -24 0 -16 17 -17 200 -17
185 -1 200 1 200 17 0 13 -11 19 -46 25 -83 12 -84 16 -84 246 l0 200 27 -3
c22 -2 57 -38 171 -178 79 -96 165 -204 191 -239 l48 -63 132 -4 c124 -4 131
-3 131 15 0 15 -12 22 -52 31 -46 11 -63 23 -128 89 -83 85 -340 391 -354 423
-9 17 11 41 156 184 170 169 218 203 311 219 25 5 37 13 37 24 0 14 -20 16
-185 16 -161 0 -185 -2 -185 -16 0 -10 15 -18 43 -25 79 -17 67 -42 -124 -245
-96 -104 -186 -179 -211 -179 -5 0 -8 84 -6 191 3 184 4 191 26 209 12 10 40
21 62 25 28 5 40 12 40 23 0 15 -20 17 -199 17 -179 0 -200 -2 -204 -17z"/>
<path d="M4213 3243 c-105 -3 -133 -6 -133 -17 0 -9 16 -17 40 -21 22 -4 50
-15 62 -25 23 -18 23 -19 26 -372 5 -493 2 -510 -88 -524 -28 -5 -40 -11 -40
-23 0 -16 20 -17 210 -18 199 -1 210 0 210 18 0 15 -8 19 -32 20 -52 0 -101
22 -115 49 -9 17 -13 76 -13 184 0 136 2 157 15 152 35 -13 115 -17 173 -7 90
15 174 56 225 110 61 65 80 120 76 219 -3 66 -9 86 -34 128 -36 57 -111 107
-187 123 -47 10 -86 11 -395 4z m313 -58 c95 -28 144 -106 144 -227 -1 -153
-91 -247 -236 -248 -99 0 -96 -8 -92 239 3 210 3 213 27 232 28 23 88 25 157
4z"/>
<path d="M4880 3117 c0 -126 0 -128 22 -125 17 2 24 14 33 53 27 120 64 146
213 148 l97 2 3 -413 c3 -469 2 -473 -65 -491 -21 -6 -48 -11 -61 -11 -17 0
-23 -5 -20 -17 3 -16 22 -18 216 -19 197 -2 212 -1 212 16 0 14 -11 19 -47 25
-27 3 -58 13 -70 21 l-23 14 0 442 0 441 100 -6 c60 -4 111 -12 130 -22 39
-20 67 -65 80 -132 9 -42 15 -53 31 -53 16 0 19 7 19 48 0 26 3 83 6 127 l7
80 -442 0 -441 0 0 -128z"/>
<path d="M6974 3186 c3 -32 6 -90 6 -127 0 -60 2 -69 18 -69 14 0 22 12 31 53
15 67 42 112 81 132 19 10 70 18 130 22 l100 6 0 -430 c0 -419 -1 -431 -21
-456 -15 -20 -33 -28 -70 -33 -37 -5 -49 -11 -49 -24 0 -16 18 -17 215 -17
200 -1 215 0 215 17 0 14 -12 19 -56 25 -101 12 -95 -20 -92 478 l3 432 96 -2
c121 -2 160 -17 189 -72 11 -23 23 -61 27 -86 5 -39 9 -45 29 -45 24 0 24 2
24 99 0 54 3 111 6 127 l5 29 -446 0 -447 0 6 -59z"/>
<path d="M8153 3242 c-185 -2 -223 -5 -223 -17 0 -9 16 -16 46 -21 89 -13 84
12 84 -454 l0 -411 -24 -24 c-14 -14 -41 -26 -70 -30 -33 -5 -46 -12 -46 -24
0 -15 32 -17 365 -19 l365 -2 0 24 c0 13 9 68 20 121 11 53 20 99 20 101 0 2
-9 4 -19 4 -14 0 -31 -21 -58 -72 -31 -58 -48 -78 -84 -98 -40 -23 -55 -25
-161 -25 -169 0 -162 -10 -166 241 l-3 195 118 -6 c65 -3 141 -8 169 -10 51
-5 52 -5 58 26 13 65 23 62 -169 57 l-175 -4 0 193 0 193 28 11 c16 7 68 9
134 6 152 -8 186 -29 209 -134 9 -39 17 -53 29 -53 20 0 30 59 30 173 l0 68
-127 -3 c-71 -2 -228 -4 -350 -6z"/>
<path d="M10530 3229 c0 -11 12 -19 38 -24 20 -3 47 -13 60 -21 21 -14 22 -19
22 -199 l0 -185 -265 0 -265 0 0 174 c0 158 2 176 20 199 13 16 35 28 60 32
25 4 40 12 40 21 0 12 -34 14 -195 14 -160 0 -195 -3 -195 -14 0 -8 15 -16 38
-20 20 -4 44 -9 53 -12 37 -11 40 -48 37 -463 l-3 -403 -24 -19 c-13 -11 -41
-22 -63 -25 -29 -5 -38 -11 -36 -23 3 -14 27 -16 195 -17 175 -2 192 0 196 16
4 14 -3 19 -40 23 -82 9 -83 11 -83 249 l0 208 265 0 265 0 0 -199 c0 -185 -1
-200 -21 -225 -13 -17 -34 -28 -60 -32 -28 -5 -39 -12 -39 -24 0 -15 18 -17
195 -17 180 -1 195 1 195 17 0 13 -11 19 -46 25 -89 13 -85 -12 -82 461 l3
416 24 19 c13 11 41 22 63 25 27 5 38 11 36 21 -3 13 -35 15 -196 16 -172 2
-192 0 -192 -14z"/>
<path d="M4562 1864 c-65 -33 -99 -109 -89 -197 12 -95 67 -147 157 -147 105
0 166 75 158 195 -4 69 -21 101 -70 138 -36 27 -114 32 -156 11z m128 -39 c58
-30 77 -157 34 -223 -25 -38 -80 -56 -126 -43 -91 28 -113 177 -38 253 33 32
83 37 130 13z"/>
<path d="M5885 1861 c-50 -22 -73 -56 -87 -124 -15 -71 2 -130 52 -179 35 -35
42 -38 96 -38 106 0 163 63 164 179 0 139 -107 216 -225 162z m123 -35 c40
-21 57 -60 57 -132 0 -76 -22 -112 -81 -133 -35 -12 -44 -12 -75 3 -49 23 -69
62 -69 133 0 65 25 117 63 133 33 13 75 12 105 -4z"/>
<path d="M7923 1865 c-36 -15 -53 -41 -53 -80 0 -40 16 -62 68 -91 65 -38 92
-64 92 -90 0 -44 -64 -65 -123 -40 -37 15 -37 15 -37 -8 0 -29 16 -36 81 -36
54 0 103 20 113 45 12 32 6 82 -13 102 -11 11 -45 35 -75 53 -64 36 -80 68
-51 100 20 22 83 27 116 10 16 -9 19 -7 19 14 0 13 -7 27 -16 30 -27 10 -87 6
-121 -9z"/>
<path d="M8895 1866 c-68 -30 -113 -120 -101 -204 13 -93 67 -142 159 -142 69
0 87 7 87 32 0 16 -4 18 -22 11 -13 -4 -43 -7 -68 -7 -37 1 -49 7 -77 38 -30
33 -33 41 -33 102 0 64 1 68 40 107 40 39 41 40 100 34 53 -4 60 -3 60 13 0
31 -89 41 -145 16z"/>
<path d="M10545 1873 c-31 -8 -84 -51 -99 -81 -33 -65 -27 -170 12 -217 35
-42 65 -55 127 -55 65 0 100 16 86 38 -6 10 -14 10 -36 2 -47 -18 -100 -3
-136 37 -30 34 -31 39 -27 106 4 65 6 71 42 104 37 34 41 35 97 30 61 -5 74
-1 59 22 -8 14 -91 24 -125 14z"/>
<path d="M1892 1733 c21 -76 43 -155 49 -175 8 -30 15 -38 33 -38 21 0 26 10
55 118 18 64 36 128 40 142 l8 25 7 -30 c4 -17 21 -81 38 -142 28 -102 33
-113 54 -113 19 0 25 9 38 53 24 87 76 283 76 290 0 4 -9 7 -20 7 -21 0 -19 5
-66 -183 -15 -59 -28 -106 -29 -105 -1 2 -15 50 -29 108 -15 58 -32 122 -37
143 -8 29 -15 37 -32 37 -20 0 -26 -14 -61 -145 -21 -80 -40 -144 -42 -143 -1
2 -16 57 -33 123 -17 66 -34 130 -37 143 -4 14 -14 22 -29 22 -22 0 -22 0 17
-137z"/>
<path d="M2350 1695 c0 -168 1 -175 20 -175 18 0 20 7 20 80 l0 80 90 0 90 0
0 -80 c0 -73 2 -80 20 -80 19 0 20 7 20 175 0 168 -1 175 -20 175 -18 0 -20
-7 -20 -75 l0 -75 -90 0 -90 0 0 75 c0 68 -2 75 -20 75 -19 0 -20 -7 -20 -175z"/>
<path d="M2700 1695 l0 -175 90 0 c83 0 90 1 90 20 0 18 -7 20 -70 20 l-70 0
0 60 0 60 60 0 c53 0 60 2 60 20 0 18 -7 20 -60 20 l-60 0 0 60 0 60 65 0 c51
0 65 3 65 15 0 12 -16 15 -85 15 l-85 0 0 -175z"/>
<path d="M2950 1695 c0 -168 1 -175 20 -175 18 0 20 7 20 75 l0 75 29 0 c32 0
57 -26 101 -107 18 -32 30 -43 48 -43 l24 0 -27 48 c-15 26 -41 64 -57 85 -16
20 -24 37 -18 37 6 0 22 11 35 25 19 18 25 35 25 65 0 30 -6 47 -25 65 -21 22
-33 25 -100 25 l-75 0 0 -175z m145 125 c20 -17 19 -69 -2 -92 -11 -12 -30
-18 -60 -18 l-43 0 0 66 0 67 45 -5 c25 -3 52 -11 60 -18z"/>
<path d="M3240 1695 l0 -175 90 0 c83 0 90 1 90 20 0 18 -7 20 -70 20 l-70 0
0 60 0 60 65 0 c58 0 65 2 65 20 0 18 -7 20 -65 20 l-66 0 3 58 3 57 65 5 c41
3 66 10 68 18 1 9 -21 12 -88 12 l-90 0 0 -175z"/>
<path d="M3630 1695 c0 -168 1 -175 20 -175 19 0 20 7 20 175 0 168 -1 175
-20 175 -19 0 -20 -7 -20 -175z"/>
<path d="M3760 1695 c0 -168 1 -175 20 -175 18 0 20 8 22 144 l3 145 90 -145
c73 -116 94 -144 112 -144 l23 0 0 175 c0 168 -1 175 -20 175 -18 0 -20 -8
-22 -140 l-3 -140 -85 140 c-76 124 -88 139 -112 140 l-28 0 0 -175z"/>
<path d="M4130 1696 c0 -169 1 -176 20 -176 19 0 20 7 20 147 l0 147 91 -147
c76 -124 95 -147 115 -147 l24 0 0 175 c0 168 -1 175 -20 175 -18 0 -20 -8
-22 -142 l-3 -143 -85 140 c-73 119 -90 140 -113 143 l-27 3 0 -175z"/>
<path d="M4830 1863 c0 -5 25 -84 57 -176 54 -158 59 -168 81 -165 22 3 30 20
77 156 75 213 71 194 44 190 -19 -3 -29 -23 -72 -151 l-49 -149 -50 151 c-41
126 -52 151 -69 151 -10 0 -19 -3 -19 -7z"/>
<path d="M5219 1843 c-9 -24 -49 -132 -105 -285 -13 -37 -12 -38 10 -38 18 0
25 9 37 48 l15 47 74 0 74 0 17 -45 c12 -33 23 -46 39 -48 16 -3 21 0 18 10
-114 322 -121 338 -145 338 -16 0 -27 -8 -34 -27z m38 -181 c-27 -2 -51 -1
-54 2 -5 4 33 129 45 150 3 6 18 -26 32 -70 l27 -79 -50 -3z"/>
<path d="M5390 1856 c0 -11 14 -16 48 -18 l47 -3 3 -157 c2 -150 4 -158 22
-158 19 0 20 7 20 159 l0 160 48 3 c91 6 43 23 -73 26 -96 2 -115 0 -115 -12z"/>
<path d="M5680 1695 c0 -168 1 -175 20 -175 19 0 20 7 20 175 0 168 -1 175
-20 175 -19 0 -20 -7 -20 -175z"/>
<path d="M6180 1695 c0 -168 1 -175 20 -175 18 0 20 8 22 148 l3 147 91 -145
c76 -121 95 -146 117 -148 l27 -3 0 175 c0 169 -1 176 -20 176 -18 0 -20 -8
-22 -145 l-3 -144 -88 144 c-82 133 -91 145 -118 145 l-29 0 0 -175z"/>
<path d="M6680 1695 c0 -168 1 -175 20 -175 18 0 20 8 22 146 l3 146 60 -142
c33 -79 65 -145 71 -147 6 -2 38 59 72 139 l61 143 1 -142 c0 -136 1 -143 20
-143 19 0 20 7 20 176 l0 175 -27 -3 c-28 -3 -43 -31 -128 -242 l-16 -40 -54
131 c-29 72 -56 136 -60 142 -3 6 -19 11 -36 11 l-29 0 0 -175z"/>
<path d="M7130 1695 l0 -175 90 0 c83 0 90 1 90 20 0 18 -7 20 -70 20 l-70 0
0 60 0 60 60 0 c53 0 60 2 60 20 0 18 -7 20 -60 20 l-60 0 0 60 0 60 65 0 c51
0 65 3 65 15 0 12 -16 15 -85 15 l-85 0 0 -175z"/>
<path d="M7370 1695 l0 -175 90 0 c83 0 90 1 90 20 0 18 -7 20 -68 20 l-68 0
1 58 0 57 63 3 c53 3 62 6 62 22 0 16 -9 19 -62 22 l-63 3 -1 45 c0 69 1 70
72 70 50 0 64 3 64 15 0 12 -17 15 -90 15 l-90 0 0 -175z"/>
<path d="M7590 1856 c0 -11 14 -16 48 -18 l47 -3 3 -157 c2 -150 4 -158 22
-158 19 0 20 7 20 160 l0 160 50 0 c38 0 50 4 50 15 0 13 -20 15 -120 15 -98
0 -120 -3 -120 -14z"/>
<path d="M8280 1695 l0 -175 90 0 c83 0 90 1 90 20 0 18 -7 20 -70 20 l-70 0
0 60 0 60 60 0 c53 0 60 2 60 20 0 18 -7 20 -60 20 l-60 0 0 60 0 60 65 0 c51
0 65 3 65 15 0 12 -16 15 -85 15 l-85 0 0 -175z"/>
<path d="M8510 1863 c0 -3 21 -42 46 -85 l46 -78 -19 -33 c-11 -17 -36 -58
-57 -89 l-37 -58 25 0 c21 0 33 13 70 75 l44 76 20 -33 c10 -18 30 -52 42 -75
17 -32 30 -43 47 -43 13 0 23 2 23 4 0 3 -23 43 -51 90 l-52 86 51 85 c49 82
50 85 27 85 -19 0 -31 -13 -62 -70 -21 -38 -40 -70 -43 -70 -3 0 -14 18 -24
40 -35 74 -55 100 -76 100 -11 0 -20 -3 -20 -7z"/>
<path d="M9120 1695 l0 -175 90 0 c83 0 90 1 90 20 0 18 -7 20 -70 20 l-70 0
0 60 0 60 60 0 c53 0 60 2 60 20 0 18 -7 20 -60 20 l-60 0 0 60 0 60 65 0 c51
0 65 3 65 15 0 12 -16 15 -85 15 l-85 0 0 -175z"/>
<path d="M9370 1695 l0 -175 85 0 c78 0 85 2 85 20 0 18 -7 20 -65 20 l-65 0
0 155 c0 148 -1 155 -20 155 -19 0 -20 -7 -20 -175z"/>
<path d="M9600 1695 l0 -175 85 0 c78 0 85 2 85 20 0 18 -7 20 -65 20 l-65 0
0 155 c0 148 -1 155 -20 155 -19 0 -20 -7 -20 -175z"/>
<path d="M9830 1695 l0 -175 90 0 c83 0 90 1 90 20 0 18 -7 20 -70 20 l-70 0
0 60 0 60 60 0 c53 0 60 2 60 20 0 18 -7 20 -60 20 l-60 0 0 60 0 60 65 0 c51
0 65 3 65 15 0 12 -16 15 -85 15 l-85 0 0 -175z"/>
<path d="M10080 1695 c0 -168 1 -175 20 -175 18 0 20 8 22 145 l3 145 89 -145
c74 -120 94 -145 113 -145 l23 0 0 175 c0 168 -1 175 -20 175 -18 0 -20 -8
-22 -141 l-3 -140 -85 140 c-76 125 -88 140 -112 141 l-28 0 0 -175z"/>
<path d="M10750 1695 l0 -175 90 0 c83 0 90 1 90 20 0 18 -7 20 -70 20 l-70 0
0 60 0 60 60 0 c53 0 60 2 60 20 0 18 -7 20 -60 20 l-60 0 0 60 0 60 65 0 c51
0 65 3 65 15 0 12 -16 15 -85 15 l-85 0 0 -175z"/>
</g>
</svg>
